# xmcd CD database file
# Copyright (C) 1996 Ti Kan
#
# Track frame offsets:
#  150
#  10350
#  21440
#  34365
#  46102
#  59315
#  73732
#  87067
#  99120
#  112815
#  125547
#  139025
#  152460
#  169362
#  180865
#  193690
#  204735
#  216997
#  229890
#  242985
#  255860
#  271020
#  282790
#  299760
#  313132
#
# Disc length: 4489 seconds
#
# Revision: 1
# Processed by: cddbd v1.4b41PL1 Copyright (c) Steve Scherf et al.
# Submitted via: CDWizzard Release:4.10
#
DISCID=66118719
DTITLE=Conway Twitty - Conway Twitty: Legendary Country Singer
DYEAR=1900
DGENRE=
TTITLE0=It's Only Make Believe
TTITLE1=Hello Darlin'
TTITLE2=Next in Line
TTITLE3=Darling, You Know I Wouldn't Lie
TTITLE4=The Image of Me
TTITLE5=Fifteen Years Ago
TTITLE6=How Much More Can She Stand
TTITLE7=After the Fire Is Gone
TTITLE8=You've Never Been This Far Before
TTITLE9=I've Already Loved You in My Mind
TTITLE10=There's a Honky Tonk Angel (Who'll Take Me Back In)
TTITLE11=After All the Good Is Gone
TTITLE12=Don't Take It Away
TTITLE13=Louisiana Woman, Mississippi Man
TTITLE14=I See the Want To in Your Eyes
TTITLE15=I Can't believe She Gives It to Me
TTITLE16=Linda on My Mind
TTITLE17=I May Never Get to Heaven
TTITLE18=Happy Birthday Darlin'
TTITLE19=Tight Fittin' Jeans
TTITLE20=I'd Love to Lay You Down
TTITLE21=Don't Call Him a Cowboy
TTITLE22=She's Got a Single Thing in Mind
TTITLE23=Slow Hand
TTITLE24=Rainy Night in Georgia
EXTD=
EXTT0=Conway Twitty
EXTT1=Conway Twitty
EXTT2=Conway Twitty
EXTT3=Conway Twitty
EXTT4=Conway Twitty
EXTT5=Conway Twitty
EXTT6=Conway Twitty
EXTT7=Conway Twitty and Loretta Lynn
EXTT8=Conway Twitty
EXTT9=Conway Twitty
EXTT10=Conway Twitty
EXTT11=Conway Twitty
EXTT12=Conway Twitty
EXTT13=Conway Twitty and Loretta Lynn
EXTT14=Conway Twitty
EXTT15=Conway Twitty
EXTT16=Conway Twitty
EXTT17=Conway Twitty
EXTT18=Conway Twitty
EXTT19=Conway Twitty
EXTT20=Conway Twitty
EXTT21=Conway Twitty
EXTT22=Conway Twitty
EXTT23=Conway Twitty
EXTT24=Conway Twitty and Sam Moore
PLAYORDER=
